/* XPM */
static const char *xpmClose16[]={
"32 32 136 2",
"Qt c None",
".W c #000000",
"ad c #000000",
"#9 c #000000",
".w c #000000",
".# c #000000",
".e c #000000",
".n c #000000",
"ac c #000000",
"#0 c #000000",
".a c #000000",
"#8 c #000000",
".f c #000000",
".b c #000000",
".B c #000000",
".d c #000000",
".c c #000000",
".v c #000000",
"#7 c #000000",
"#T c #000000",
".o c #000000",
"#b c #000000",
".M c #000000",
".m c #101010",
".5 c #000000",
"#6 c #1e1f20",
".V c #101010",
"#Z c #2d2f30",
".g c #404040",
"#5 c #6a6e70",
".h c #808080",
"#Y c #898d8f",
".i c #9f9f9f",
".A c #9b9b9b",
".H c #9d9e9e",
".l c #bbbbbb",
".j c #bdbdbd",
".k c #c6c6c6",
"af c #bbc4cf",
"#4 c #bdc6cf",
"ab c #bec6cf",
".u c #bfbfbf",
"#X c #bfc7cf",
"#S c #d6dbdf",
".2 c #9b9da1",
".3 c #a5a6ab",
".S c #acadad",
".1 c #adafb3",
".T c #aeaeaf",
".R c #babbbc",
".U c #bdbebf",
".Q c #c2c3c6",
".4 c #c3c5c8",
".K c #c7c8ca",
"#3 c #c9deff",
".F c #cacacb",
"#V c #ccdeff",
"#N c #cfe0ff",
"#M c #d0e1ff",
"#W c #d1e1ff",
"#O c #d2e2ff",
".y c #d3d3d4",
"#L c #d3e3ff",
"#K c #d5e4ff",
"#I c #d6e5ff",
".0 c #d7d9df",
"a. c #d7e6ff",
"#G c #d8e6ff",
"#D c #d9e7ff",
"#2 c #dae7ff",
"#y c #dbe8ff",
"#R c #dbe9ff",
"#x c #dce9ff",
"#P c #dde9ff",
"#C c #deeaff",
"#z c #dfebff",
"#U c #dfecff",
"#. c #e0e2e8",
"a# c #e0ecff",
"#w c #e1ebff",
"#Q c #e1edff",
".9 c #e2e6ec",
"#v c #e2ecff",
"aa c #e2eeff",
"#1 c #e3efff",
"## c #e4e6ec",
"#t c #e4edff",
"#J c #e4efff",
"#u c #e5eeff",
"#F c #e5f0ff",
"#r c #e7efff",
"#H c #e7f1ff",
"#o c #e8f0ff",
".s c #e9e9e9",
"#B c #e9f2ff",
"#n c #eaf1ff",
"#m c #ebf2ff",
"#A c #ebf3ff",
"#E c #ecf3ff",
"#a c #edeff3",
".8 c #edf1f8",
"#l c #edf3ff",
".J c #eeeff3",
"#j c #eef4ff",
"#s c #eef5ff",
".E c #f0f0f3",
".P c #f0f1f5",
"#e c #f0f5ff",
"#q c #f0f6ff",
"#d c #f1f6ff",
"ae c #f1f9ff",
"#p c #f2f7ff",
".x c #f3f3f4",
".Z c #f3f5fb",
"#g c #f3f7ff",
"#k c #f3f8ff",
".G c #f4f4f4",
".L c #f4f4f5",
"#f c #f4f8ff",
".7 c #f5f7fe",
"#i c #f5f9ff",
".Y c #f6f8ff",
"#h c #f6faff",
".r c #f7f7f8",
".X c #f7f9ff",
"#c c #f7faff",
".6 c #f8fbff",
".O c #f9faff",
".I c #fafbff",
".z c #fbfbfb",
".N c #fbfcff",
".t c #fcfcfc",
".D c #fcfcff",
".C c #fdfdff",
".q c #fefeff",
".p c #ffffff",
"QtQtQtQtQtQtQtQtQtQtQtQtQtQtQtQtQtQtQtQtQtQtQtQtQtQtQtQtQtQtQtQt",
"QtQtQtQtQtQtQtQtQtQtQtQtQtQtQtQtQtQtQtQtQtQtQtQtQtQtQtQtQtQtQtQt",
"QtQtQtQtQtQtQtQtQt.#.#.#.a.a.a.a.b.c.c.d.eQtQtQtQtQtQtQtQtQtQtQt",
"QtQtQtQtQtQtQtQt.f.g.g.g.h.h.h.h.i.j.k.l.m.nQtQtQtQtQtQtQtQtQtQt",
"QtQtQtQtQtQtQtQt.o.p.q.q.q.q.q.p.q.r.s.t.u.v.wQtQtQtQtQtQtQtQtQt",
"QtQtQtQtQtQtQtQt.o.q.q.q.q.q.q.q.q.x.y.p.z.A.B.wQtQtQtQtQtQtQtQt",
"QtQtQtQtQtQtQtQt.o.C.D.D.D.D.D.D.D.E.F.p.p.G.H.BQtQtQtQtQtQtQtQt",
"QtQtQtQtQtQtQtQt.o.D.I.I.I.I.I.I.I.J.K.p.p.p.L.MQtQtQtQtQtQtQtQt",
"QtQtQtQtQtQtQtQt.o.N.I.I.O.O.I.O.O.P.Q.R.S.T.U.V.WQtQtQtQtQtQtQt",
"QtQtQtQtQtQtQtQt.o.N.X.Y.X.X.X.X.Y.Z.0.1.2.3.4.5.WQtQtQtQtQtQtQt",
"QtQtQtQtQtQtQtQt.o.6.Y.Y.Y.Y.Y.Y.X.7.8.9#.###a#b.WQtQtQtQtQtQtQt",
"QtQtQtQtQtQtQtQt.o#c#d#e#f#d#e#f#d#e#g#d#g.Y#h.oQtQtQtQtQtQtQtQt",
"QtQtQtQtQtQtQtQt.o#i#g#j#g#e#g#d#e#j#j#g#j#d#f.oQtQtQtQtQtQtQtQt",
"QtQtQtQtQtQtQtQt.o#k#d#l#l#j#l#j#j#l#e#d#l#j#h.oQtQtQtQtQtQtQtQt",
"QtQtQtQtQtQtQtQt.o#k#m#j#m#n#l#n#j#j#n#o#n#o#p.oQtQtQtQtQtQtQtQt",
"QtQtQtQtQtQtQtQt.o#q#r#m#n#l#m#o#n#o#l#r#n#o#p.oQtQtQtQtQtQtQtQt",
"QtQtQtQtQtQtQtQt.o#s#t#u#r#o#m#o#u#u#o#u#u#v#q.oQtQtQtQtQtQtQtQt",
"QtQtQtQtQtQtQtQt.o#q#v#r#r#w#v#u#v#x#t#v#u#n#s.oQtQtQtQtQtQtQtQt",
"QtQtQtQtQtQtQtQt.o#s#w#u#w#y#r#t#z#u#u#z#v#v#A.oQtQtQtQtQtQtQtQt",
"QtQtQtQtQtQtQtQt.o#B#w#z#C#y#w#u#w#w#v#t#u#D#E.oQtQtQtQtQtQtQtQt",
"QtQtQtQtQtQtQtQt.o#F#z#w#C#G#x#v#y#z#C#C#z#D#H.oQtQtQtQtQtQtQtQt",
"QtQtQtQtQtQtQtQt.o#E#G#y#I#x#G#G#G#x#G#C#x#y#J.oQtQtQtQtQtQtQtQt",
"QtQtQtQtQtQtQtQt.o#A#K#I#C#G#G#K#x#x#D#I#C#z#H.oQtQtQtQtQtQtQtQt",
"QtQtQtQtQtQtQtQt.o#F#D#D#G#G#L#K#K#D#I#w#D#M#F.oQtQtQtQtQtQtQtQt",
"QtQtQtQtQtQtQtQt.o#J#N#O#I#K#L#L#G#N#P#Q#R#H#S#TQtQtQtQtQtQtQtQt",
"QtQtQtQtQtQtQtQt.o#U#G#L#V#G#I#W#C#R#J#X#Y#Z#T#0QtQtQtQtQtQtQtQt",
"QtQtQtQtQtQtQtQt.o#1#K#G#2#3#R#1#4#5#6#7#8#9QtQtQtQtQtQtQtQtQtQt",
"QtQtQtQtQtQtQtQt.o#Ja.a#aaab#5#6#7acadQtQtQtQtQtQtQtQtQtQtQtQtQt",
"QtQtQtQtQtQtQtQt.oaeaf#5#6#7acadQtQtQtQtQtQtQtQtQtQtQtQtQtQtQtQt",
"QtQtQtQtQtQtQtQt.f.o#7acadQtQtQtQtQtQtQtQtQtQtQtQtQtQtQtQtQtQtQt",
"QtQtQtQtQtQtQtQtQtQtQtQtQtQtQtQtQtQtQtQtQtQtQtQtQtQtQtQtQtQtQtQt",
"QtQtQtQtQtQtQtQtQtQtQtQtQtQtQtQtQtQtQtQtQtQtQtQtQtQtQtQtQtQtQtQt"};
