/* XPM */
static const char * xpmPooling48[] = {
"48 48 4 1",
" 	c none",
".	c #000000000000",
"X	c #999999999999",
"o	c #CCCCCCCCCCCC",
"                                                ",
"                   .. ..                        ",
"                   .. ..                        ",
"                   .. ..                        ",
"                  XXXXXXX                       ",
"                  XXXXXXX                       ",
"                  XXXXXXX                       ",
"                   XXXXX                        ",
"                    XXX                         ",
"                    XXX                         ",
"                    XXX                         ",
"                    XXX                         ",
"             XXXXXXXXXXXXXXXXX                  ",
"             X...............X                  ",
"             X.XXXXXXXXXXXXX.X                  ",
"             X.XXXXXXXXXXXXX.X                  ",
"             X.XXXXXXXXXXXXX.X                  ",
"             X.XXXXXXXXXXXXX.X                  ",
"             X.XXXoooooooXXX.X                  ",
"             X.XXXo..o..oXXX.X                  ",
"             X.XXXo..o..oXXX.X                  ",
"             X.XXXoooooooXXX.X                  ",
"             X.XXXXXXXXXXXXX.X                  ",
"             X.XXXXXXXXXXXXX.X                  ",
"             X.XXXXXXXXXXXXX.X                  ",
"             X.XXXXXXXXXXXXX.X                  ",
"             X.XXXXXXXXXXXXX.X                  ",
"             X.XXXoooooooXXX.X                  ",
"             X.XXXo..o..oXXX.X                  ",
"             X.XXXo..o..oXXX.X                  ",
"             X.XXXoooooooXXX.X                  ",
"             X.XXXXXXXXXXXXX.X                  ",
"             X.XXXXXXXXXXXXX.X                  ",
"             X.XXXXXXXXXXXXX.X                  ",
"             X.XXXXXXXXXXXXX.X                  ",
"             X.XXXoooooooXXX.X                  ",
"             X.XXXo..o..oXXX.X                  ",
"             X.XXXo..o..oXXX.X                  ",
"             X.XXXoooooooXXX.X                  ",
"             X.XXXXXXXXXXXXX.X                  ",
"             X.XXXXXXXXXXXXX.X                  ",
"             X.XXXXXXXXXXXXX.X                  ",
"             X.XXXXXXXXXXXXX.X                  ",
"             X...............X                  ",
"             XXXXXXXXXXXXXXXXX                  ",
"                                                ",
"                                                ",
"                                                "};
